<mxfile host="app.diagrams.net" agent="Mozilla/5.0 (X11; Linux x86_64) AppleWebKit/537.36 (KHTML, like Gecko) Chrome/132.0.0.0 Safari/537.36" version="26.0.7">
  <diagram name="Page-1" id="2cc2dc42-3aac-f2a9-1cec-7a8b7cbee084">
    <mxGraphModel dx="1436" dy="794" grid="1" gridSize="10" guides="1" tooltips="1" connect="1" arrows="1" fold="1" page="1" pageScale="1" pageWidth="1100" pageHeight="850" background="none" math="0" shadow="0">
      <root>
        <mxCell id="0" />
        <mxCell id="1" parent="0" />
        <mxCell id="7026571954dc6520-1" value="" style="strokeWidth=1;shadow=0;dashed=0;align=center;html=1;shape=mxgraph.mockup.containers.browserWindow;rSize=0;strokeColor=#666666;mainText=,;recursiveResize=0;rounded=0;labelBackgroundColor=none;fontFamily=Verdana;fontSize=12" parent="1" vertex="1">
          <mxGeometry x="30" y="20" width="1050" height="400" as="geometry" />
        </mxCell>
        <mxCell id="7026571954dc6520-2" value="Budgets" style="strokeWidth=1;shadow=0;dashed=0;align=center;html=1;shape=mxgraph.mockup.containers.anchor;fontSize=17;fontColor=#666666;align=left;" parent="7026571954dc6520-1" vertex="1">
          <mxGeometry x="60" y="12" width="110" height="26" as="geometry" />
        </mxCell>
        <mxCell id="7026571954dc6520-3" value="https://www.default.com" style="strokeWidth=1;shadow=0;dashed=0;align=center;html=1;shape=mxgraph.mockup.containers.anchor;rSize=0;fontSize=17;fontColor=#666666;align=left;" parent="7026571954dc6520-1" vertex="1">
          <mxGeometry x="130" y="60" width="250" height="26" as="geometry" />
        </mxCell>
        <mxCell id="u3UJq_kPFXmeamdahJQ9-14" value="Budget 1" style="shape=rectangle;strokeColor=none;fillColor=none;linkText=;fontSize=17;fontColor=#0000ff;fontStyle=4;html=1;align=left;" vertex="1" parent="7026571954dc6520-1">
          <mxGeometry x="40" y="200" width="150" height="30" as="geometry" />
        </mxCell>
        <mxCell id="u3UJq_kPFXmeamdahJQ9-15" value="Budget 2" style="shape=rectangle;strokeColor=none;fillColor=none;linkText=;fontSize=17;fontColor=#0000ff;fontStyle=4;html=1;align=left;" vertex="1" parent="7026571954dc6520-1">
          <mxGeometry x="40" y="230" width="150" height="30" as="geometry" />
        </mxCell>
        <mxCell id="u3UJq_kPFXmeamdahJQ9-16" value="Budget 3" style="shape=rectangle;strokeColor=none;fillColor=none;linkText=;fontSize=17;fontColor=#0000ff;fontStyle=4;html=1;align=left;" vertex="1" parent="7026571954dc6520-1">
          <mxGeometry x="40" y="260" width="150" height="30" as="geometry" />
        </mxCell>
        <mxCell id="u3UJq_kPFXmeamdahJQ9-17" value="Budgets" style="text;html=1;points=[];align=left;verticalAlign=top;spacingTop=-4;fontSize=30;fontFamily=Verdana" vertex="1" parent="7026571954dc6520-1">
          <mxGeometry x="30" y="130" width="340" height="50" as="geometry" />
        </mxCell>
        <mxCell id="u3UJq_kPFXmeamdahJQ9-44" value="New Budget" style="strokeWidth=1;shadow=0;dashed=0;align=center;html=1;shape=mxgraph.mockup.buttons.button;strokeColor=#666666;fontColor=#ffffff;mainText=;buttonStyle=round;fontSize=17;fontStyle=1;fillColor=#008cff;whiteSpace=wrap;" vertex="1" parent="7026571954dc6520-1">
          <mxGeometry x="860" y="140" width="150" height="30" as="geometry" />
        </mxCell>
        <mxCell id="u3UJq_kPFXmeamdahJQ9-45" value="" style="strokeWidth=1;shadow=0;dashed=0;align=center;html=1;shape=mxgraph.mockup.containers.browserWindow;rSize=0;strokeColor=#666666;mainText=,;recursiveResize=0;rounded=0;labelBackgroundColor=none;fontFamily=Verdana;fontSize=12" vertex="1" parent="1">
          <mxGeometry x="30" y="470" width="1050" height="780" as="geometry" />
        </mxCell>
        <mxCell id="u3UJq_kPFXmeamdahJQ9-46" value="Budgets" style="strokeWidth=1;shadow=0;dashed=0;align=center;html=1;shape=mxgraph.mockup.containers.anchor;fontSize=17;fontColor=#666666;align=left;" vertex="1" parent="u3UJq_kPFXmeamdahJQ9-45">
          <mxGeometry x="60" y="12" width="110" height="26" as="geometry" />
        </mxCell>
        <mxCell id="u3UJq_kPFXmeamdahJQ9-47" value="https://www.default.com" style="strokeWidth=1;shadow=0;dashed=0;align=center;html=1;shape=mxgraph.mockup.containers.anchor;rSize=0;fontSize=17;fontColor=#666666;align=left;" vertex="1" parent="u3UJq_kPFXmeamdahJQ9-45">
          <mxGeometry x="130" y="60" width="250" height="26" as="geometry" />
        </mxCell>
        <mxCell id="u3UJq_kPFXmeamdahJQ9-48" value="Budget 1" style="shape=rectangle;strokeColor=none;fillColor=none;linkText=;fontSize=17;fontColor=#0000ff;fontStyle=4;html=1;align=left;" vertex="1" parent="u3UJq_kPFXmeamdahJQ9-45">
          <mxGeometry x="40" y="200" width="150" height="30" as="geometry" />
        </mxCell>
        <mxCell id="u3UJq_kPFXmeamdahJQ9-49" value="Budget 2" style="shape=rectangle;strokeColor=none;fillColor=none;linkText=;fontSize=17;fontColor=#0000ff;fontStyle=4;html=1;align=left;" vertex="1" parent="u3UJq_kPFXmeamdahJQ9-45">
          <mxGeometry x="40" y="230" width="150" height="30" as="geometry" />
        </mxCell>
        <mxCell id="u3UJq_kPFXmeamdahJQ9-50" value="Budget 3" style="shape=rectangle;strokeColor=none;fillColor=none;linkText=;fontSize=17;fontColor=#0000ff;fontStyle=4;html=1;align=left;" vertex="1" parent="u3UJq_kPFXmeamdahJQ9-45">
          <mxGeometry x="40" y="260" width="150" height="30" as="geometry" />
        </mxCell>
        <mxCell id="u3UJq_kPFXmeamdahJQ9-51" value="Budget 1" style="text;html=1;points=[];align=left;verticalAlign=top;spacingTop=-4;fontSize=30;fontFamily=Verdana" vertex="1" parent="u3UJq_kPFXmeamdahJQ9-45">
          <mxGeometry x="30" y="130" width="340" height="50" as="geometry" />
        </mxCell>
        <mxCell id="u3UJq_kPFXmeamdahJQ9-52" value="New Expense" style="strokeWidth=1;shadow=0;dashed=0;align=center;html=1;shape=mxgraph.mockup.buttons.button;strokeColor=#666666;fontColor=#ffffff;mainText=;buttonStyle=round;fontSize=17;fontStyle=1;fillColor=#008cff;whiteSpace=wrap;" vertex="1" parent="u3UJq_kPFXmeamdahJQ9-45">
          <mxGeometry x="860" y="140" width="150" height="30" as="geometry" />
        </mxCell>
        <mxCell id="u3UJq_kPFXmeamdahJQ9-53" value="New Income" style="strokeWidth=1;shadow=0;dashed=0;align=center;html=1;shape=mxgraph.mockup.buttons.button;strokeColor=#666666;fontColor=#ffffff;mainText=;buttonStyle=round;fontSize=17;fontStyle=1;fillColor=#008cff;whiteSpace=wrap;" vertex="1" parent="u3UJq_kPFXmeamdahJQ9-45">
          <mxGeometry x="860" y="180" width="150" height="30" as="geometry" />
        </mxCell>
        <mxCell id="u3UJq_kPFXmeamdahJQ9-54" value="Delete Budget" style="strokeWidth=1;shadow=0;dashed=0;align=center;html=1;shape=mxgraph.mockup.buttons.button;strokeColor=#666666;fontColor=#ffffff;mainText=;buttonStyle=round;fontSize=17;fontStyle=1;fillColor=#FD0814;whiteSpace=wrap;" vertex="1" parent="u3UJq_kPFXmeamdahJQ9-45">
          <mxGeometry x="860" y="220" width="150" height="30" as="geometry" />
        </mxCell>
        <mxCell id="u3UJq_kPFXmeamdahJQ9-55" value="" style="verticalLabelPosition=bottom;shadow=0;dashed=0;align=center;html=1;verticalAlign=top;strokeWidth=1;shape=mxgraph.mockup.graphics.lineChart;strokeColor=none;strokeColor2=#666666;strokeColor3=#008cff;strokeColor4=#dddddd;" vertex="1" parent="u3UJq_kPFXmeamdahJQ9-45">
          <mxGeometry x="40" y="550" width="900" height="200" as="geometry" />
        </mxCell>
        <mxCell id="u3UJq_kPFXmeamdahJQ9-56" value="Income" style="text;html=1;points=[];align=left;verticalAlign=top;spacingTop=-4;fontSize=30;fontFamily=Verdana" vertex="1" parent="u3UJq_kPFXmeamdahJQ9-45">
          <mxGeometry x="30" y="320" width="340" height="50" as="geometry" />
        </mxCell>
        <mxCell id="u3UJq_kPFXmeamdahJQ9-57" value="Expenses" style="text;html=1;points=[];align=left;verticalAlign=top;spacingTop=-4;fontSize=30;fontFamily=Verdana" vertex="1" parent="u3UJq_kPFXmeamdahJQ9-45">
          <mxGeometry x="480" y="320" width="340" height="50" as="geometry" />
        </mxCell>
        <mxCell id="u3UJq_kPFXmeamdahJQ9-58" value="-Line 1&#xa;-Line 2&#xa;-Line 3&#xa;-Line 4" style="strokeWidth=1;shadow=0;dashed=0;align=center;html=1;shape=mxgraph.mockup.text.bulletedList;textColor=#666666;mainText=,,,,;textSize=17;bulletStyle=none;strokeColor=none;fillColor=none;align=left;verticalAlign=top;fontSize=17;fontColor=#666666;" vertex="1" parent="u3UJq_kPFXmeamdahJQ9-45">
          <mxGeometry x="30" y="370" width="150" height="135" as="geometry" />
        </mxCell>
        <mxCell id="u3UJq_kPFXmeamdahJQ9-59" value="-Line 1&#xa;-Line 2&#xa;-Line 3&#xa;-Line 4" style="strokeWidth=1;shadow=0;dashed=0;align=center;html=1;shape=mxgraph.mockup.text.bulletedList;textColor=#666666;mainText=,,,,;textSize=17;bulletStyle=none;strokeColor=none;fillColor=none;align=left;verticalAlign=top;fontSize=17;fontColor=#666666;" vertex="1" parent="u3UJq_kPFXmeamdahJQ9-45">
          <mxGeometry x="480" y="370" width="150" height="135" as="geometry" />
        </mxCell>
      </root>
    </mxGraphModel>
  </diagram>
</mxfile>
